<svg width="2511" height="400" viewBox="0 0 2511 400" fill="none" xmlns="http://www.w3.org/2000/svg">
<rect width="2511" height="400" fill="white"/>
<path d="M1084.18 308V286.525H1091.14C1093.78 286.525 1095.5 286.633 1096.3 286.848C1097.53 287.17 1098.56 287.873 1099.39 288.957C1100.22 290.031 1100.63 291.423 1100.63 293.132C1100.63 294.45 1100.39 295.559 1099.92 296.457C1099.44 297.355 1098.83 298.063 1098.08 298.581C1097.35 299.089 1096.6 299.426 1095.84 299.592C1094.81 299.797 1093.31 299.899 1091.35 299.899H1088.52V308H1084.18ZM1088.52 290.158V296.252H1090.89C1092.6 296.252 1093.74 296.14 1094.32 295.915C1094.9 295.69 1095.34 295.339 1095.67 294.86C1096 294.382 1096.17 293.825 1096.17 293.19C1096.17 292.409 1095.94 291.765 1095.48 291.257C1095.02 290.749 1094.44 290.432 1093.73 290.305C1093.22 290.207 1092.18 290.158 1090.61 290.158H1088.52ZM1107.24 297.189L1103.5 296.516C1103.92 295.012 1104.65 293.898 1105.67 293.176C1106.7 292.453 1108.22 292.092 1110.24 292.092C1112.08 292.092 1113.45 292.312 1114.34 292.751C1115.24 293.181 1115.87 293.732 1116.23 294.406C1116.6 295.07 1116.79 296.296 1116.79 298.083L1116.75 302.888C1116.75 304.255 1116.81 305.266 1116.94 305.92C1117.07 306.564 1117.32 307.258 1117.68 308H1113.61C1113.5 307.727 1113.37 307.321 1113.22 306.784C1113.15 306.54 1113.1 306.379 1113.07 306.301C1112.37 306.984 1111.61 307.497 1110.81 307.839C1110.01 308.181 1109.16 308.352 1108.25 308.352C1106.65 308.352 1105.38 307.917 1104.46 307.048C1103.54 306.179 1103.08 305.08 1103.08 303.752C1103.08 302.873 1103.29 302.092 1103.71 301.408C1104.13 300.715 1104.71 300.188 1105.47 299.826C1106.23 299.455 1107.32 299.133 1108.75 298.859C1110.67 298.498 1112 298.161 1112.75 297.849V297.438C1112.75 296.647 1112.55 296.086 1112.16 295.754C1111.77 295.412 1111.03 295.241 1109.95 295.241C1109.22 295.241 1108.65 295.388 1108.24 295.681C1107.83 295.964 1107.49 296.467 1107.24 297.189ZM1112.75 300.529C1112.22 300.705 1111.38 300.915 1110.24 301.159C1109.1 301.403 1108.35 301.643 1108 301.877C1107.46 302.258 1107.2 302.741 1107.2 303.327C1107.2 303.903 1107.41 304.401 1107.84 304.821C1108.27 305.241 1108.82 305.451 1109.48 305.451C1110.22 305.451 1110.93 305.207 1111.6 304.719C1112.1 304.348 1112.43 303.894 1112.59 303.356C1112.69 303.005 1112.75 302.336 1112.75 301.35V300.529ZM1128 292.443V295.725H1125.18V301.994C1125.18 303.264 1125.21 304.006 1125.26 304.221C1125.32 304.426 1125.44 304.597 1125.62 304.733C1125.82 304.87 1126.05 304.938 1126.33 304.938C1126.71 304.938 1127.26 304.807 1127.98 304.543L1128.33 307.736C1127.38 308.146 1126.29 308.352 1125.08 308.352C1124.34 308.352 1123.67 308.229 1123.07 307.985C1122.48 307.731 1122.04 307.409 1121.76 307.019C1121.48 306.618 1121.29 306.081 1121.18 305.407C1121.1 304.929 1121.05 303.962 1121.05 302.507V295.725H1119.16V292.443H1121.05V289.353L1125.18 286.95V292.443H1128ZM1133.93 297.189L1130.19 296.516C1130.61 295.012 1131.34 293.898 1132.36 293.176C1133.39 292.453 1134.91 292.092 1136.93 292.092C1138.77 292.092 1140.13 292.312 1141.03 292.751C1141.93 293.181 1142.56 293.732 1142.92 294.406C1143.29 295.07 1143.48 296.296 1143.48 298.083L1143.44 302.888C1143.44 304.255 1143.5 305.266 1143.63 305.92C1143.76 306.564 1144.01 307.258 1144.37 308H1140.3C1140.19 307.727 1140.06 307.321 1139.91 306.784C1139.84 306.54 1139.79 306.379 1139.76 306.301C1139.06 306.984 1138.3 307.497 1137.5 307.839C1136.7 308.181 1135.85 308.352 1134.94 308.352C1133.34 308.352 1132.07 307.917 1131.15 307.048C1130.23 306.179 1129.77 305.08 1129.77 303.752C1129.77 302.873 1129.98 302.092 1130.4 301.408C1130.82 300.715 1131.4 300.188 1132.16 299.826C1132.92 299.455 1134.01 299.133 1135.44 298.859C1137.36 298.498 1138.69 298.161 1139.44 297.849V297.438C1139.44 296.647 1139.24 296.086 1138.85 295.754C1138.46 295.412 1137.72 295.241 1136.64 295.241C1135.91 295.241 1135.33 295.388 1134.92 295.681C1134.51 295.964 1134.18 296.467 1133.93 297.189ZM1139.44 300.529C1138.91 300.705 1138.07 300.915 1136.93 301.159C1135.79 301.403 1135.04 301.643 1134.69 301.877C1134.15 302.258 1133.88 302.741 1133.88 303.327C1133.88 303.903 1134.1 304.401 1134.53 304.821C1134.96 305.241 1135.51 305.451 1136.17 305.451C1136.91 305.451 1137.62 305.207 1138.29 304.719C1138.79 304.348 1139.12 303.894 1139.28 303.356C1139.38 303.005 1139.44 302.336 1139.44 301.35V300.529ZM1147.17 309.025L1151.87 309.597C1151.95 310.144 1152.13 310.52 1152.42 310.725C1152.81 311.018 1153.42 311.164 1154.26 311.164C1155.33 311.164 1156.14 311.003 1156.68 310.681C1157.04 310.466 1157.31 310.119 1157.5 309.641C1157.62 309.299 1157.69 308.669 1157.69 307.751V305.48C1156.46 307.16 1154.91 308 1153.03 308C1150.94 308 1149.29 307.116 1148.06 305.349C1147.11 303.952 1146.63 302.214 1146.63 300.134C1146.63 297.526 1147.25 295.534 1148.5 294.157C1149.76 292.78 1151.33 292.092 1153.19 292.092C1155.12 292.092 1156.7 292.937 1157.95 294.626V292.443H1161.8V306.403C1161.8 308.239 1161.65 309.611 1161.35 310.52C1161.05 311.428 1160.62 312.141 1160.08 312.658C1159.53 313.176 1158.8 313.581 1157.88 313.874C1156.97 314.167 1155.82 314.313 1154.42 314.313C1151.79 314.313 1149.92 313.859 1148.81 312.951C1147.71 312.053 1147.16 310.91 1147.16 309.523C1147.16 309.387 1147.16 309.221 1147.17 309.025ZM1150.85 299.899C1150.85 301.55 1151.17 302.761 1151.8 303.532C1152.44 304.294 1153.24 304.675 1154.17 304.675C1155.18 304.675 1156.03 304.284 1156.72 303.503C1157.42 302.712 1157.76 301.545 1157.76 300.002C1157.76 298.391 1157.43 297.194 1156.77 296.413C1156.1 295.632 1155.26 295.241 1154.25 295.241C1153.26 295.241 1152.44 295.627 1151.8 296.398C1151.17 297.16 1150.85 298.327 1150.85 299.899ZM1164.94 300.002C1164.94 298.635 1165.28 297.312 1165.95 296.032C1166.62 294.753 1167.58 293.776 1168.81 293.103C1170.05 292.429 1171.43 292.092 1172.95 292.092C1175.31 292.092 1177.23 292.858 1178.74 294.392C1180.24 295.915 1180.99 297.844 1180.99 300.178C1180.99 302.531 1180.23 304.484 1178.71 306.037C1177.2 307.58 1175.29 308.352 1172.98 308.352C1171.56 308.352 1170.19 308.029 1168.89 307.385C1167.61 306.74 1166.62 305.798 1165.95 304.558C1165.28 303.308 1164.94 301.789 1164.94 300.002ZM1169.16 300.222C1169.16 301.765 1169.52 302.946 1170.26 303.767C1170.99 304.587 1171.89 304.997 1172.97 304.997C1174.04 304.997 1174.94 304.587 1175.66 303.767C1176.39 302.946 1176.76 301.755 1176.76 300.192C1176.76 298.669 1176.39 297.497 1175.66 296.677C1174.94 295.856 1174.04 295.446 1172.97 295.446C1171.89 295.446 1170.99 295.856 1170.26 296.677C1169.52 297.497 1169.16 298.679 1169.16 300.222ZM1198.38 308H1194.27V300.061C1194.27 298.381 1194.18 297.297 1194 296.809C1193.83 296.311 1193.54 295.925 1193.14 295.651C1192.75 295.378 1192.27 295.241 1191.72 295.241C1191 295.241 1190.36 295.437 1189.8 295.827C1189.23 296.218 1188.84 296.735 1188.63 297.38C1188.42 298.024 1188.32 299.216 1188.32 300.954V308H1184.2V292.443H1188.03V294.729C1189.38 292.971 1191.09 292.092 1193.15 292.092C1194.06 292.092 1194.89 292.258 1195.64 292.59C1196.39 292.912 1196.96 293.327 1197.34 293.835C1197.73 294.343 1198 294.919 1198.15 295.563C1198.3 296.208 1198.38 297.131 1198.38 298.332V308ZM1202.57 290.334V286.525H1206.69V290.334H1202.57ZM1202.57 308V292.443H1206.69V308H1202.57ZM1214 297.189L1210.26 296.516C1210.68 295.012 1211.4 293.898 1212.43 293.176C1213.46 292.453 1214.98 292.092 1217 292.092C1218.84 292.092 1220.2 292.312 1221.1 292.751C1222 293.181 1222.63 293.732 1222.99 294.406C1223.36 295.07 1223.55 296.296 1223.55 298.083L1223.5 302.888C1223.5 304.255 1223.57 305.266 1223.69 305.92C1223.83 306.564 1224.08 307.258 1224.44 308H1220.37C1220.26 307.727 1220.13 307.321 1219.97 306.784C1219.91 306.54 1219.86 306.379 1219.83 306.301C1219.12 306.984 1218.37 307.497 1217.57 307.839C1216.77 308.181 1215.92 308.352 1215.01 308.352C1213.41 308.352 1212.14 307.917 1211.21 307.048C1210.3 306.179 1209.84 305.08 1209.84 303.752C1209.84 302.873 1210.05 302.092 1210.47 301.408C1210.89 300.715 1211.47 300.188 1212.22 299.826C1212.99 299.455 1214.08 299.133 1215.51 298.859C1217.43 298.498 1218.76 298.161 1219.5 297.849V297.438C1219.5 296.647 1219.31 296.086 1218.92 295.754C1218.53 295.412 1217.79 295.241 1216.71 295.241C1215.97 295.241 1215.4 295.388 1214.99 295.681C1214.58 295.964 1214.25 296.467 1214 297.189ZM1219.5 300.529C1218.98 300.705 1218.14 300.915 1217 301.159C1215.86 301.403 1215.11 301.643 1214.76 301.877C1214.22 302.258 1213.95 302.741 1213.95 303.327C1213.95 303.903 1214.17 304.401 1214.6 304.821C1215.03 305.241 1215.57 305.451 1216.24 305.451C1216.98 305.451 1217.69 305.207 1218.36 304.719C1218.86 304.348 1219.19 303.894 1219.34 303.356C1219.45 303.005 1219.5 302.336 1219.5 301.35V300.529ZM1236.03 308V286.525H1250.75V290.158H1240.36V295.241H1249.33V298.874H1240.36V308H1236.03ZM1254.31 308V286.525H1258.43V308H1254.31ZM1271.67 303.049L1275.77 303.737C1275.24 305.241 1274.41 306.389 1273.26 307.18C1272.13 307.961 1270.71 308.352 1269 308.352C1266.3 308.352 1264.29 307.468 1263 305.7C1261.97 304.284 1261.46 302.497 1261.46 300.339C1261.46 297.761 1262.13 295.744 1263.48 294.289C1264.83 292.824 1266.53 292.092 1268.59 292.092C1270.91 292.092 1272.73 292.858 1274.07 294.392C1275.41 295.915 1276.05 298.254 1275.99 301.408H1265.68C1265.71 302.629 1266.04 303.581 1266.67 304.265C1267.31 304.938 1268.1 305.275 1269.05 305.275C1269.69 305.275 1270.23 305.1 1270.67 304.748C1271.11 304.396 1271.44 303.83 1271.67 303.049ZM1271.9 298.889C1271.87 297.697 1271.57 296.794 1270.98 296.179C1270.39 295.554 1269.68 295.241 1268.84 295.241C1267.94 295.241 1267.2 295.568 1266.61 296.223C1266.03 296.877 1265.74 297.766 1265.75 298.889H1271.9ZM1288.37 303.049L1292.47 303.737C1291.94 305.241 1291.11 306.389 1289.96 307.18C1288.83 307.961 1287.41 308.352 1285.7 308.352C1283 308.352 1280.99 307.468 1279.7 305.7C1278.67 304.284 1278.16 302.497 1278.16 300.339C1278.16 297.761 1278.83 295.744 1280.18 294.289C1281.53 292.824 1283.23 292.092 1285.29 292.092C1287.61 292.092 1289.43 292.858 1290.77 294.392C1292.11 295.915 1292.75 298.254 1292.69 301.408H1282.38C1282.41 302.629 1282.74 303.581 1283.37 304.265C1284.01 304.938 1284.8 305.275 1285.75 305.275C1286.39 305.275 1286.93 305.1 1287.37 304.748C1287.81 304.396 1288.14 303.83 1288.37 303.049ZM1288.6 298.889C1288.57 297.697 1288.26 296.794 1287.68 296.179C1287.09 295.554 1286.38 295.241 1285.54 295.241C1284.64 295.241 1283.9 295.568 1283.31 296.223C1282.73 296.877 1282.44 297.766 1282.45 298.889H1288.6ZM1309.62 297.043L1305.56 297.775C1305.43 296.965 1305.12 296.354 1304.63 295.944C1304.15 295.534 1303.52 295.329 1302.75 295.329C1301.73 295.329 1300.91 295.686 1300.29 296.398C1299.69 297.102 1299.38 298.283 1299.38 299.943C1299.38 301.789 1299.69 303.093 1300.31 303.854C1300.93 304.616 1301.77 304.997 1302.81 304.997C1303.59 304.997 1304.23 304.777 1304.73 304.338C1305.23 303.889 1305.58 303.122 1305.78 302.038L1309.83 302.727C1309.41 304.582 1308.6 305.983 1307.41 306.931C1306.22 307.878 1304.62 308.352 1302.62 308.352C1300.34 308.352 1298.53 307.634 1297.17 306.198C1295.82 304.763 1295.15 302.775 1295.15 300.236C1295.15 297.668 1295.83 295.671 1297.19 294.245C1298.54 292.81 1300.38 292.092 1302.69 292.092C1304.59 292.092 1306.09 292.502 1307.21 293.322C1308.33 294.133 1309.13 295.373 1309.62 297.043ZM1321.77 303.049L1325.87 303.737C1325.34 305.241 1324.5 306.389 1323.36 307.18C1322.23 307.961 1320.81 308.352 1319.1 308.352C1316.39 308.352 1314.39 307.468 1313.09 305.7C1312.07 304.284 1311.56 302.497 1311.56 300.339C1311.56 297.761 1312.23 295.744 1313.58 294.289C1314.92 292.824 1316.63 292.092 1318.69 292.092C1321 292.092 1322.83 292.858 1324.17 294.392C1325.51 295.915 1326.15 298.254 1326.09 301.408H1315.77C1315.8 302.629 1316.14 303.581 1316.77 304.265C1317.41 304.938 1318.2 305.275 1319.14 305.275C1319.79 305.275 1320.33 305.1 1320.77 304.748C1321.21 304.396 1321.54 303.83 1321.77 303.049ZM1322 298.889C1321.97 297.697 1321.66 296.794 1321.08 296.179C1320.49 295.554 1319.78 295.241 1318.94 295.241C1318.04 295.241 1317.3 295.568 1316.71 296.223C1316.13 296.877 1315.84 297.766 1315.85 298.889H1322ZM1345.58 286.525H1349.91V300.119C1349.91 301.896 1349.75 303.264 1349.44 304.221C1349.02 305.471 1348.25 306.477 1347.15 307.238C1346.05 307.99 1344.59 308.366 1342.79 308.366C1340.67 308.366 1339.04 307.775 1337.89 306.594C1336.75 305.402 1336.17 303.659 1336.17 301.364L1340.25 300.896C1340.3 302.126 1340.48 302.995 1340.79 303.503C1341.26 304.274 1341.98 304.66 1342.93 304.66C1343.9 304.66 1344.58 304.387 1344.98 303.84C1345.38 303.283 1345.58 302.136 1345.58 300.397V286.525ZM1357.58 297.189L1353.85 296.516C1354.27 295.012 1354.99 293.898 1356.01 293.176C1357.04 292.453 1358.56 292.092 1360.58 292.092C1362.42 292.092 1363.79 292.312 1364.69 292.751C1365.58 293.181 1366.21 293.732 1366.58 294.406C1366.95 295.07 1367.13 296.296 1367.13 298.083L1367.09 302.888C1367.09 304.255 1367.15 305.266 1367.28 305.92C1367.42 306.564 1367.66 307.258 1368.03 308H1363.95C1363.85 307.727 1363.71 307.321 1363.56 306.784C1363.49 306.54 1363.44 306.379 1363.41 306.301C1362.71 306.984 1361.96 307.497 1361.16 307.839C1360.35 308.181 1359.5 308.352 1358.59 308.352C1356.99 308.352 1355.73 307.917 1354.8 307.048C1353.88 306.179 1353.42 305.08 1353.42 303.752C1353.42 302.873 1353.63 302.092 1354.05 301.408C1354.47 300.715 1355.06 300.188 1355.81 299.826C1356.57 299.455 1357.66 299.133 1359.09 298.859C1361.01 298.498 1362.35 298.161 1363.09 297.849V297.438C1363.09 296.647 1362.89 296.086 1362.5 295.754C1362.11 295.412 1361.38 295.241 1360.29 295.241C1359.56 295.241 1358.99 295.388 1358.58 295.681C1358.17 295.964 1357.83 296.467 1357.58 297.189ZM1363.09 300.529C1362.56 300.705 1361.73 300.915 1360.58 301.159C1359.44 301.403 1358.69 301.643 1358.34 301.877C1357.81 302.258 1357.54 302.741 1357.54 303.327C1357.54 303.903 1357.75 304.401 1358.18 304.821C1358.61 305.241 1359.16 305.451 1359.82 305.451C1360.56 305.451 1361.27 305.207 1361.95 304.719C1362.44 304.348 1362.77 303.894 1362.93 303.356C1363.04 303.005 1363.09 302.336 1363.09 301.35V300.529ZM1384.77 297.043L1380.71 297.775C1380.57 296.965 1380.26 296.354 1379.77 295.944C1379.29 295.534 1378.67 295.329 1377.9 295.329C1376.87 295.329 1376.05 295.686 1375.44 296.398C1374.83 297.102 1374.53 298.283 1374.53 299.943C1374.53 301.789 1374.84 303.093 1375.45 303.854C1376.08 304.616 1376.91 304.997 1377.96 304.997C1378.74 304.997 1379.38 304.777 1379.88 304.338C1380.37 303.889 1380.73 303.122 1380.93 302.038L1384.97 302.727C1384.55 304.582 1383.75 305.983 1382.56 306.931C1381.37 307.878 1379.77 308.352 1377.77 308.352C1375.49 308.352 1373.67 307.634 1372.32 306.198C1370.97 304.763 1370.3 302.775 1370.3 300.236C1370.3 297.668 1370.97 295.671 1372.33 294.245C1373.69 292.81 1375.53 292.092 1377.84 292.092C1379.73 292.092 1381.24 292.502 1382.35 293.322C1383.47 294.133 1384.28 295.373 1384.77 297.043ZM1387.76 308V286.525H1391.87V297.922L1396.69 292.443H1401.76L1396.44 298.127L1402.14 308H1397.7L1393.79 301.013L1391.87 303.02V308H1387.76ZM1413.61 303.049L1417.71 303.737C1417.19 305.241 1416.35 306.389 1415.21 307.18C1414.08 307.961 1412.65 308.352 1410.95 308.352C1408.24 308.352 1406.24 307.468 1404.94 305.7C1403.91 304.284 1403.4 302.497 1403.4 300.339C1403.4 297.761 1404.08 295.744 1405.42 294.289C1406.77 292.824 1408.47 292.092 1410.54 292.092C1412.85 292.092 1414.68 292.858 1416.01 294.392C1417.35 295.915 1417.99 298.254 1417.93 301.408H1407.62C1407.65 302.629 1407.98 303.581 1408.62 304.265C1409.25 304.938 1410.04 305.275 1410.99 305.275C1411.63 305.275 1412.18 305.1 1412.62 304.748C1413.05 304.396 1413.39 303.83 1413.61 303.049ZM1413.85 298.889C1413.82 297.697 1413.51 296.794 1412.92 296.179C1412.34 295.554 1411.62 295.241 1410.78 295.241C1409.89 295.241 1409.14 295.568 1408.56 296.223C1407.97 296.877 1407.68 297.766 1407.69 298.889H1413.85ZM1428.44 292.443V295.725H1425.62V301.994C1425.62 303.264 1425.65 304.006 1425.7 304.221C1425.75 304.426 1425.88 304.597 1426.06 304.733C1426.26 304.87 1426.49 304.938 1426.77 304.938C1427.15 304.938 1427.7 304.807 1428.42 304.543L1428.77 307.736C1427.82 308.146 1426.73 308.352 1425.52 308.352C1424.78 308.352 1424.11 308.229 1423.51 307.985C1422.92 307.731 1422.48 307.409 1422.2 307.019C1421.92 306.618 1421.73 306.081 1421.62 305.407C1421.54 304.929 1421.49 303.962 1421.49 302.507V295.725H1419.6V292.443H1421.49V289.353L1425.62 286.95V292.443H1428.44Z" fill="black"/>
<path d="M1101.45 212L1095.13 185.515H1100.6L1104.59 203.708L1109.44 185.515H1115.79L1120.44 204.015L1124.5 185.515H1129.89L1123.45 212H1117.78L1112.51 192.199L1107.25 212H1101.45ZM1136.77 212H1131.69V192.813H1136.41V195.542C1137.22 194.253 1137.94 193.404 1138.58 192.994C1139.23 192.585 1139.96 192.38 1140.78 192.38C1141.94 192.38 1143.05 192.699 1144.12 193.337L1142.55 197.764C1141.7 197.21 1140.9 196.933 1140.17 196.933C1139.46 196.933 1138.85 197.131 1138.36 197.529C1137.87 197.914 1137.47 198.619 1137.19 199.643C1136.91 200.666 1136.77 202.81 1136.77 206.074V212ZM1146.33 190.212V185.515H1151.4V190.212H1146.33ZM1146.33 212V192.813H1151.4V212H1146.33ZM1165.42 192.813V196.86H1161.95V204.593C1161.95 206.159 1161.98 207.074 1162.04 207.339C1162.12 207.592 1162.27 207.803 1162.5 207.971C1162.74 208.14 1163.03 208.224 1163.36 208.224C1163.83 208.224 1164.51 208.062 1165.4 207.736L1165.84 211.675C1164.66 212.181 1163.32 212.434 1161.83 212.434C1160.91 212.434 1160.09 212.283 1159.35 211.982C1158.62 211.669 1158.08 211.271 1157.73 210.79C1157.39 210.296 1157.15 209.633 1157.02 208.802C1156.91 208.212 1156.86 207.02 1156.86 205.225V196.86H1154.53V192.813H1156.86V189.001L1161.95 186.039V192.813H1165.42ZM1180.06 205.894L1185.12 206.743C1184.46 208.597 1183.44 210.013 1182.03 210.988C1180.63 211.952 1178.88 212.434 1176.77 212.434C1173.43 212.434 1170.96 211.344 1169.36 209.164C1168.1 207.417 1167.46 205.213 1167.46 202.551C1167.46 199.372 1168.3 196.884 1169.96 195.09C1171.62 193.283 1173.72 192.38 1176.26 192.38C1179.12 192.38 1181.37 193.325 1183.02 195.216C1184.67 197.095 1185.46 199.98 1185.39 203.87H1172.67C1172.7 205.376 1173.11 206.55 1173.9 207.393C1174.68 208.224 1175.65 208.64 1176.82 208.64C1177.62 208.64 1178.29 208.423 1178.83 207.989C1179.37 207.556 1179.78 206.857 1180.06 205.894ZM1180.35 200.763C1180.31 199.293 1179.93 198.179 1179.21 197.42C1178.48 196.65 1177.61 196.264 1176.57 196.264C1175.46 196.264 1174.55 196.668 1173.82 197.475C1173.1 198.282 1172.75 199.378 1172.76 200.763H1180.35ZM1206.14 212V200.853L1196.44 185.515H1202.71L1208.94 195.993L1215.05 185.515H1221.21L1211.47 200.889V212H1206.14ZM1219.91 202.136C1219.91 200.45 1220.33 198.818 1221.16 197.24C1221.99 195.662 1223.16 194.458 1224.68 193.626C1226.21 192.795 1227.91 192.38 1229.79 192.38C1232.7 192.38 1235.07 193.325 1236.93 195.216C1238.78 197.095 1239.71 199.474 1239.71 202.353C1239.71 205.255 1238.77 207.664 1236.89 209.579C1235.03 211.482 1232.67 212.434 1229.83 212.434C1228.07 212.434 1226.39 212.036 1224.79 211.241C1223.2 210.446 1221.99 209.284 1221.16 207.754C1220.33 206.213 1219.91 204.34 1219.91 202.136ZM1225.11 202.407C1225.11 204.31 1225.57 205.767 1226.47 206.779C1227.37 207.791 1228.49 208.296 1229.81 208.296C1231.14 208.296 1232.24 207.791 1233.14 206.779C1234.04 205.767 1234.49 204.298 1234.49 202.371C1234.49 200.492 1234.04 199.046 1233.14 198.035C1232.24 197.023 1231.14 196.517 1229.81 196.517C1228.49 196.517 1227.37 197.023 1226.47 198.035C1225.57 199.046 1225.11 200.504 1225.11 202.407ZM1256.33 212V209.127C1255.63 210.151 1254.71 210.958 1253.57 211.548C1252.44 212.139 1251.24 212.434 1249.97 212.434C1248.68 212.434 1247.53 212.151 1246.5 211.584C1245.48 211.018 1244.74 210.223 1244.28 209.2C1243.83 208.176 1243.6 206.761 1243.6 204.954V192.813H1248.67V201.63C1248.67 204.328 1248.76 205.984 1248.94 206.598C1249.14 207.2 1249.48 207.682 1249.97 208.043C1250.47 208.393 1251.09 208.567 1251.85 208.567C1252.72 208.567 1253.5 208.333 1254.18 207.863C1254.87 207.381 1255.34 206.791 1255.59 206.092C1255.85 205.382 1255.97 203.653 1255.97 200.907V192.813H1261.05V212H1256.33ZM1271.18 212H1266.11V192.813H1270.82V195.542C1271.63 194.253 1272.35 193.404 1272.99 192.994C1273.64 192.585 1274.38 192.38 1275.19 192.38C1276.35 192.38 1277.46 192.699 1278.54 193.337L1276.96 197.764C1276.11 197.21 1275.31 196.933 1274.58 196.933C1273.87 196.933 1273.27 197.131 1272.77 197.529C1272.28 197.914 1271.89 198.619 1271.6 199.643C1271.32 200.666 1271.18 202.81 1271.18 206.074V212ZM1291.09 212V185.515H1302.35C1305.18 185.515 1307.23 185.756 1308.51 186.237C1309.8 186.707 1310.83 187.55 1311.6 188.767C1312.37 189.983 1312.75 191.374 1312.75 192.94C1312.75 194.927 1312.17 196.571 1311 197.872C1309.83 199.161 1308.09 199.974 1305.76 200.311C1306.92 200.986 1307.87 201.726 1308.62 202.533C1309.38 203.34 1310.39 204.773 1311.67 206.833L1314.9 212H1308.51L1304.64 206.237C1303.27 204.177 1302.33 202.882 1301.82 202.353C1301.32 201.811 1300.78 201.443 1300.22 201.25C1299.65 201.046 1298.75 200.943 1297.52 200.943H1296.44V212H1291.09ZM1296.44 196.716H1300.4C1302.96 196.716 1304.56 196.607 1305.2 196.391C1305.84 196.174 1306.34 195.8 1306.7 195.271C1307.06 194.741 1307.24 194.078 1307.24 193.283C1307.24 192.392 1307 191.675 1306.52 191.133C1306.05 190.579 1305.38 190.23 1304.52 190.085C1304.08 190.025 1302.78 189.995 1300.61 189.995H1296.44V196.716ZM1328.89 205.894L1333.95 206.743C1333.3 208.597 1332.27 210.013 1330.86 210.988C1329.46 211.952 1327.71 212.434 1325.6 212.434C1322.26 212.434 1319.79 211.344 1318.19 209.164C1316.93 207.417 1316.3 205.213 1316.3 202.551C1316.3 199.372 1317.13 196.884 1318.79 195.09C1320.45 193.283 1322.55 192.38 1325.09 192.38C1327.95 192.38 1330.2 193.325 1331.85 195.216C1333.5 197.095 1334.29 199.98 1334.22 203.87H1321.5C1321.53 205.376 1321.94 206.55 1322.73 207.393C1323.51 208.224 1324.49 208.64 1325.65 208.64C1326.45 208.64 1327.12 208.423 1327.66 207.989C1328.2 207.556 1328.61 206.857 1328.89 205.894ZM1329.18 200.763C1329.14 199.293 1328.76 198.179 1328.04 197.42C1327.32 196.65 1326.44 196.264 1325.4 196.264C1324.29 196.264 1323.38 196.668 1322.65 197.475C1321.93 198.282 1321.58 199.378 1321.59 200.763H1329.18ZM1343.65 212L1335.92 192.813H1341.25L1344.86 202.605L1345.91 205.875C1346.18 205.044 1346.36 204.496 1346.43 204.231C1346.6 203.689 1346.78 203.147 1346.97 202.605L1350.62 192.813H1355.84L1348.22 212H1343.65ZM1358.97 190.212V185.515H1364.04V190.212H1358.97ZM1358.97 212V192.813H1364.04V212H1358.97ZM1380.38 205.894L1385.44 206.743C1384.79 208.597 1383.76 210.013 1382.35 210.988C1380.95 211.952 1379.2 212.434 1377.09 212.434C1373.75 212.434 1371.28 211.344 1369.68 209.164C1368.42 207.417 1367.78 205.213 1367.78 202.551C1367.78 199.372 1368.62 196.884 1370.28 195.09C1371.94 193.283 1374.04 192.38 1376.58 192.38C1379.44 192.38 1381.69 193.325 1383.34 195.216C1384.99 197.095 1385.78 199.98 1385.71 203.87H1372.99C1373.02 205.376 1373.43 206.55 1374.22 207.393C1375 208.224 1375.97 208.64 1377.14 208.64C1377.94 208.64 1378.61 208.423 1379.15 207.989C1379.69 207.556 1380.1 206.857 1380.38 205.894ZM1380.67 200.763C1380.63 199.293 1380.25 198.179 1379.53 197.42C1378.81 196.65 1377.93 196.264 1376.89 196.264C1375.78 196.264 1374.87 196.668 1374.14 197.475C1373.42 198.282 1373.07 199.378 1373.08 200.763H1380.67ZM1393.44 212L1387.37 192.813H1392.3L1395.9 205.388L1399.2 192.813H1404.1L1407.3 205.388L1410.96 192.813H1415.97L1409.81 212H1404.93L1401.62 199.661L1398.37 212H1393.44Z" fill="black"/>
<path d="M112.039 93.7168L98.2988 87.7422V84.4336L112.039 78.4863V82.3828L102.455 86.0469L112.039 89.8477V93.7168ZM123.195 75.957H131.207C132.793 75.957 133.973 76.0254 134.748 76.1621C135.532 76.2897 136.229 76.5632 136.84 76.9824C137.46 77.4017 137.975 77.9622 138.385 78.6641C138.795 79.3568 139 80.1361 139 81.002C139 81.9408 138.745 82.8021 138.234 83.5859C137.733 84.3698 137.049 84.9577 136.184 85.3496C137.405 85.7051 138.344 86.3112 139 87.168C139.656 88.0247 139.984 89.0319 139.984 90.1895C139.984 91.1009 139.77 91.9896 139.342 92.8555C138.923 93.7122 138.344 94.4004 137.605 94.9199C136.876 95.4303 135.974 95.7448 134.898 95.8633C134.224 95.9362 132.597 95.9818 130.018 96H123.195V75.957ZM127.242 79.293V83.9277H129.895C131.471 83.9277 132.451 83.9049 132.834 83.8594C133.527 83.7773 134.069 83.5404 134.461 83.1484C134.862 82.7474 135.062 82.2233 135.062 81.5762C135.062 80.9564 134.889 80.4551 134.543 80.0723C134.206 79.6803 133.7 79.4434 133.025 79.3613C132.624 79.3158 131.471 79.293 129.566 79.293H127.242ZM127.242 87.2637V92.623H130.988C132.447 92.623 133.372 92.582 133.764 92.5C134.365 92.3906 134.853 92.1263 135.227 91.707C135.609 91.2786 135.801 90.709 135.801 89.998C135.801 89.3965 135.655 88.8861 135.363 88.4668C135.072 88.0475 134.648 87.7422 134.092 87.5508C133.545 87.3594 132.351 87.2637 130.51 87.2637H127.242ZM146.26 85.9102L142.773 85.2812C143.165 83.8776 143.84 82.8385 144.797 82.1641C145.754 81.4896 147.176 81.1523 149.062 81.1523C150.776 81.1523 152.052 81.3574 152.891 81.7676C153.729 82.1686 154.317 82.6836 154.654 83.3125C155.001 83.9323 155.174 85.0762 155.174 86.7441L155.133 91.2285C155.133 92.5046 155.192 93.4479 155.311 94.0586C155.438 94.6602 155.671 95.3073 156.008 96H152.207C152.107 95.7448 151.984 95.3665 151.838 94.8652C151.774 94.6374 151.729 94.487 151.701 94.4141C151.045 95.0521 150.343 95.5306 149.596 95.8496C148.848 96.1686 148.051 96.3281 147.203 96.3281C145.708 96.3281 144.528 95.9225 143.662 95.1113C142.805 94.3001 142.377 93.2747 142.377 92.0352C142.377 91.2148 142.573 90.4857 142.965 89.8477C143.357 89.2005 143.904 88.7083 144.605 88.3711C145.316 88.0247 146.337 87.724 147.668 87.4688C149.464 87.1315 150.708 86.8171 151.4 86.5254V86.1426C151.4 85.4043 151.218 84.8802 150.854 84.5703C150.489 84.2513 149.801 84.0918 148.789 84.0918C148.105 84.0918 147.572 84.2285 147.189 84.502C146.807 84.7663 146.497 85.2357 146.26 85.9102ZM151.4 89.0273C150.908 89.1914 150.129 89.3874 149.062 89.6152C147.996 89.8431 147.299 90.0664 146.971 90.2852C146.469 90.6406 146.219 91.0918 146.219 91.6387C146.219 92.1764 146.419 92.6413 146.82 93.0332C147.221 93.4251 147.732 93.6211 148.352 93.6211C149.044 93.6211 149.705 93.3932 150.334 92.9375C150.799 92.5911 151.104 92.1673 151.25 91.666C151.35 91.3379 151.4 90.7135 151.4 89.793V89.0273ZM171.635 85.7734L167.848 86.457C167.72 85.7005 167.428 85.1309 166.973 84.748C166.526 84.3652 165.943 84.1738 165.223 84.1738C164.266 84.1738 163.5 84.5065 162.926 85.1719C162.361 85.8281 162.078 86.931 162.078 88.4805C162.078 90.2031 162.365 91.4199 162.939 92.1309C163.523 92.8418 164.302 93.1973 165.277 93.1973C166.007 93.1973 166.604 92.9922 167.068 92.582C167.533 92.1628 167.861 91.4473 168.053 90.4355L171.826 91.0781C171.434 92.8099 170.682 94.1178 169.57 95.002C168.458 95.8861 166.968 96.3281 165.1 96.3281C162.976 96.3281 161.281 95.6582 160.014 94.3184C158.756 92.9785 158.127 91.1237 158.127 88.7539C158.127 86.3568 158.76 84.4928 160.027 83.1621C161.294 81.8223 163.008 81.1523 165.168 81.1523C166.936 81.1523 168.34 81.5352 169.379 82.3008C170.427 83.0573 171.179 84.2148 171.635 85.7734ZM174.424 96V75.957H178.266V86.5938L182.764 81.4805H187.494L182.531 86.7852L187.85 96H183.707L180.057 89.4785L178.266 91.3516V96H174.424ZM204.598 81.4805V84.543H201.973V90.3945C201.973 91.5794 201.995 92.2721 202.041 92.4727C202.096 92.6641 202.21 92.8236 202.383 92.9512C202.565 93.0788 202.784 93.1426 203.039 93.1426C203.395 93.1426 203.91 93.0195 204.584 92.7734L204.912 95.7539C204.019 96.1367 203.007 96.3281 201.877 96.3281C201.184 96.3281 200.56 96.2142 200.004 95.9863C199.448 95.7493 199.038 95.4486 198.773 95.084C198.518 94.7103 198.34 94.209 198.24 93.5801C198.158 93.1335 198.117 92.2311 198.117 90.873V84.543H196.354V81.4805H198.117V78.5957L201.973 76.3535V81.4805H204.598ZM206.375 88.5352C206.375 87.2591 206.689 86.0241 207.318 84.8301C207.947 83.6361 208.836 82.7246 209.984 82.0957C211.142 81.4668 212.432 81.1523 213.854 81.1523C216.05 81.1523 217.85 81.8678 219.254 83.2988C220.658 84.7207 221.359 86.5208 221.359 88.6992C221.359 90.8958 220.648 92.7188 219.227 94.168C217.814 95.6081 216.032 96.3281 213.881 96.3281C212.55 96.3281 211.279 96.0273 210.066 95.4258C208.863 94.8242 207.947 93.9447 207.318 92.7871C206.689 91.6204 206.375 90.2031 206.375 88.5352ZM210.312 88.7402C210.312 90.1803 210.654 91.2832 211.338 92.0488C212.021 92.8145 212.865 93.1973 213.867 93.1973C214.87 93.1973 215.708 92.8145 216.383 92.0488C217.066 91.2832 217.408 90.1712 217.408 88.7129C217.408 87.291 217.066 86.1973 216.383 85.4316C215.708 84.666 214.87 84.2832 213.867 84.2832C212.865 84.2832 212.021 84.666 211.338 85.4316C210.654 86.1973 210.312 87.3001 210.312 88.7402ZM232.201 96V75.957H238.695C241.156 75.957 242.76 76.0573 243.508 76.2578C244.656 76.5586 245.618 77.2148 246.393 78.2266C247.167 79.2292 247.555 80.528 247.555 82.123C247.555 83.3535 247.331 84.388 246.885 85.2266C246.438 86.0651 245.868 86.7259 245.176 87.209C244.492 87.6829 243.795 87.9974 243.084 88.1523C242.118 88.3438 240.719 88.4395 238.887 88.4395H236.248V96H232.201ZM236.248 79.3477V85.0352H238.463C240.058 85.0352 241.124 84.9303 241.662 84.7207C242.2 84.5111 242.619 84.1829 242.92 83.7363C243.23 83.2897 243.385 82.7702 243.385 82.1777C243.385 81.4486 243.171 80.847 242.742 80.373C242.314 79.8991 241.771 79.6029 241.115 79.4844C240.632 79.3932 239.661 79.3477 238.203 79.3477H236.248ZM254.527 96H250.686V81.4805H254.254V83.5449C254.865 82.5697 255.411 81.9271 255.895 81.6172C256.387 81.3073 256.943 81.1523 257.562 81.1523C258.438 81.1523 259.281 81.3939 260.092 81.877L258.902 85.2266C258.255 84.8073 257.654 84.5977 257.098 84.5977C256.56 84.5977 256.104 84.748 255.73 85.0488C255.357 85.3405 255.061 85.8737 254.842 86.6484C254.632 87.4232 254.527 89.0456 254.527 91.5156V96ZM260.871 88.5352C260.871 87.2591 261.186 86.0241 261.814 84.8301C262.443 83.6361 263.332 82.7246 264.48 82.0957C265.638 81.4668 266.928 81.1523 268.35 81.1523C270.546 81.1523 272.346 81.8678 273.75 83.2988C275.154 84.7207 275.855 86.5208 275.855 88.6992C275.855 90.8958 275.145 92.7188 273.723 94.168C272.31 95.6081 270.528 96.3281 268.377 96.3281C267.046 96.3281 265.775 96.0273 264.562 95.4258C263.359 94.8242 262.443 93.9447 261.814 92.7871C261.186 91.6204 260.871 90.2031 260.871 88.5352ZM264.809 88.7402C264.809 90.1803 265.15 91.2832 265.834 92.0488C266.518 92.8145 267.361 93.1973 268.363 93.1973C269.366 93.1973 270.204 92.8145 270.879 92.0488C271.562 91.2832 271.904 90.1712 271.904 88.7129C271.904 87.291 271.562 86.1973 270.879 85.4316C270.204 84.666 269.366 84.2832 268.363 84.2832C267.361 84.2832 266.518 84.666 265.834 85.4316C265.15 86.1973 264.809 87.3001 264.809 88.7402ZM292.193 96H288.625V93.8672C288.033 94.6966 287.331 95.3164 286.52 95.7266C285.717 96.1276 284.906 96.3281 284.086 96.3281C282.418 96.3281 280.987 95.6582 279.793 94.3184C278.608 92.9694 278.016 91.0918 278.016 88.6855C278.016 86.2246 278.594 84.3561 279.752 83.0801C280.91 81.7949 282.372 81.1523 284.141 81.1523C285.763 81.1523 287.167 81.8268 288.352 83.1758V75.957H292.193V96ZM281.939 88.4258C281.939 89.9753 282.154 91.0964 282.582 91.7891C283.202 92.7917 284.068 93.293 285.18 93.293C286.064 93.293 286.816 92.9193 287.436 92.1719C288.055 91.4154 288.365 90.2897 288.365 88.7949C288.365 87.127 288.064 85.9284 287.463 85.1992C286.861 84.4609 286.091 84.0918 285.152 84.0918C284.241 84.0918 283.475 84.4564 282.855 85.1855C282.245 85.9056 281.939 86.9857 281.939 88.4258ZM305.551 96V93.8262C305.022 94.6009 304.325 95.2116 303.459 95.6582C302.602 96.1048 301.695 96.3281 300.738 96.3281C299.763 96.3281 298.888 96.1139 298.113 95.6855C297.339 95.2572 296.778 94.6556 296.432 93.8809C296.085 93.1061 295.912 92.0352 295.912 90.668V81.4805H299.754V88.1523C299.754 90.194 299.822 91.4473 299.959 91.9121C300.105 92.3678 300.365 92.7324 300.738 93.0059C301.112 93.2702 301.586 93.4023 302.16 93.4023C302.816 93.4023 303.404 93.2246 303.924 92.8691C304.443 92.5046 304.799 92.0579 304.99 91.5293C305.182 90.9915 305.277 89.6836 305.277 87.6055V81.4805H309.119V96H305.551ZM325.771 85.7734L321.984 86.457C321.857 85.7005 321.565 85.1309 321.109 84.748C320.663 84.3652 320.079 84.1738 319.359 84.1738C318.402 84.1738 317.637 84.5065 317.062 85.1719C316.497 85.8281 316.215 86.931 316.215 88.4805C316.215 90.2031 316.502 91.4199 317.076 92.1309C317.66 92.8418 318.439 93.1973 319.414 93.1973C320.143 93.1973 320.74 92.9922 321.205 92.582C321.67 92.1628 321.998 91.4473 322.189 90.4355L325.963 91.0781C325.571 92.8099 324.819 94.1178 323.707 95.002C322.595 95.8861 321.105 96.3281 319.236 96.3281C317.113 96.3281 315.417 95.6582 314.15 94.3184C312.893 92.9785 312.264 91.1237 312.264 88.7539C312.264 86.3568 312.897 84.4928 314.164 83.1621C315.431 81.8223 317.145 81.1523 319.305 81.1523C321.073 81.1523 322.477 81.5352 323.516 82.3008C324.564 83.0573 325.316 84.2148 325.771 85.7734ZM335.355 81.4805V84.543H332.73V90.3945C332.73 91.5794 332.753 92.2721 332.799 92.4727C332.854 92.6641 332.967 92.8236 333.141 92.9512C333.323 93.0788 333.542 93.1426 333.797 93.1426C334.152 93.1426 334.667 93.0195 335.342 92.7734L335.67 95.7539C334.777 96.1367 333.765 96.3281 332.635 96.3281C331.942 96.3281 331.318 96.2142 330.762 95.9863C330.206 95.7493 329.796 95.4486 329.531 95.084C329.276 94.7103 329.098 94.209 328.998 93.5801C328.916 93.1335 328.875 92.2311 328.875 90.873V84.543H327.111V81.4805H328.875V78.5957L332.73 76.3535V81.4805H335.355Z" fill="black"/>
<rect x="2146" y="74" width="311" height="69" rx="34.5" fill="black"/>
<path d="M2203.2 119V97.5254H2212.32C2214.62 97.5254 2216.28 97.7207 2217.32 98.1113C2218.36 98.4922 2219.2 99.1758 2219.82 100.162C2220.45 101.148 2220.76 102.276 2220.76 103.546C2220.76 105.157 2220.29 106.49 2219.34 107.545C2218.39 108.59 2216.98 109.249 2215.09 109.522C2216.03 110.069 2216.8 110.67 2217.41 111.324C2218.02 111.979 2218.85 113.141 2219.88 114.811L2222.5 119H2217.32L2214.18 114.327C2213.07 112.657 2212.31 111.607 2211.9 111.178C2211.49 110.738 2211.05 110.44 2210.59 110.284C2210.14 110.118 2209.41 110.035 2208.41 110.035H2207.53V119H2203.2ZM2207.53 106.607H2210.74C2212.82 106.607 2214.12 106.52 2214.64 106.344C2215.16 106.168 2215.56 105.865 2215.85 105.436C2216.15 105.006 2216.29 104.469 2216.29 103.824C2216.29 103.102 2216.1 102.521 2215.71 102.081C2215.33 101.632 2214.78 101.349 2214.08 101.231C2213.73 101.183 2212.67 101.158 2210.92 101.158H2207.53V106.607ZM2233.84 114.049L2237.94 114.737C2237.42 116.241 2236.58 117.389 2235.44 118.18C2234.31 118.961 2232.88 119.352 2231.18 119.352C2228.47 119.352 2226.47 118.468 2225.17 116.7C2224.14 115.284 2223.63 113.497 2223.63 111.339C2223.63 108.761 2224.31 106.744 2225.65 105.289C2227 103.824 2228.71 103.092 2230.77 103.092C2233.08 103.092 2234.91 103.858 2236.24 105.392C2237.58 106.915 2238.22 109.254 2238.16 112.408H2227.85C2227.88 113.629 2228.21 114.581 2228.85 115.265C2229.48 115.938 2230.27 116.275 2231.22 116.275C2231.86 116.275 2232.41 116.1 2232.85 115.748C2233.29 115.396 2233.62 114.83 2233.84 114.049ZM2234.08 109.889C2234.05 108.697 2233.74 107.794 2233.15 107.179C2232.57 106.554 2231.85 106.241 2231.01 106.241C2230.12 106.241 2229.37 106.568 2228.79 107.223C2228.2 107.877 2227.91 108.766 2227.92 109.889H2234.08ZM2244.61 108.189L2240.87 107.516C2241.29 106.012 2242.02 104.898 2243.04 104.176C2244.07 103.453 2245.59 103.092 2247.61 103.092C2249.45 103.092 2250.81 103.312 2251.71 103.751C2252.61 104.181 2253.24 104.732 2253.6 105.406C2253.97 106.07 2254.16 107.296 2254.16 109.083L2254.12 113.888C2254.12 115.255 2254.18 116.266 2254.31 116.92C2254.44 117.564 2254.69 118.258 2255.05 119H2250.98C2250.87 118.727 2250.74 118.321 2250.58 117.784C2250.52 117.54 2250.47 117.379 2250.44 117.301C2249.74 117.984 2248.98 118.497 2248.18 118.839C2247.38 119.181 2246.53 119.352 2245.62 119.352C2244.02 119.352 2242.75 118.917 2241.83 118.048C2240.91 117.179 2240.45 116.08 2240.45 114.752C2240.45 113.873 2240.66 113.092 2241.08 112.408C2241.5 111.715 2242.08 111.188 2242.84 110.826C2243.6 110.455 2244.69 110.133 2246.12 109.859C2248.04 109.498 2249.37 109.161 2250.12 108.849V108.438C2250.12 107.647 2249.92 107.086 2249.53 106.754C2249.14 106.412 2248.4 106.241 2247.32 106.241C2246.59 106.241 2246.01 106.388 2245.6 106.681C2245.19 106.964 2244.86 107.467 2244.61 108.189ZM2250.12 111.529C2249.59 111.705 2248.75 111.915 2247.61 112.159C2246.47 112.403 2245.72 112.643 2245.37 112.877C2244.83 113.258 2244.56 113.741 2244.56 114.327C2244.56 114.903 2244.78 115.401 2245.21 115.821C2245.64 116.241 2246.19 116.451 2246.85 116.451C2247.59 116.451 2248.3 116.207 2248.97 115.719C2249.47 115.348 2249.8 114.894 2249.96 114.356C2250.06 114.005 2250.12 113.336 2250.12 112.35V111.529ZM2272.5 119H2268.68V116.715C2268.04 117.604 2267.29 118.268 2266.42 118.707C2265.56 119.137 2264.69 119.352 2263.81 119.352C2262.03 119.352 2260.49 118.634 2259.21 117.198C2257.94 115.753 2257.31 113.741 2257.31 111.163C2257.31 108.526 2257.93 106.524 2259.17 105.157C2260.41 103.78 2261.98 103.092 2263.87 103.092C2265.61 103.092 2267.11 103.814 2268.38 105.26V97.5254H2272.5V119ZM2261.51 110.885C2261.51 112.545 2261.74 113.746 2262.2 114.488C2262.87 115.562 2263.79 116.1 2264.98 116.1C2265.93 116.1 2266.74 115.699 2267.4 114.898C2268.07 114.088 2268.4 112.882 2268.4 111.28C2268.4 109.493 2268.08 108.209 2267.43 107.428C2266.79 106.637 2265.96 106.241 2264.96 106.241C2263.98 106.241 2263.16 106.632 2262.49 107.413C2261.84 108.185 2261.51 109.342 2261.51 110.885ZM2284.96 119V97.5254H2294.09C2296.39 97.5254 2298.05 97.7207 2299.09 98.1113C2300.13 98.4922 2300.97 99.1758 2301.59 100.162C2302.22 101.148 2302.53 102.276 2302.53 103.546C2302.53 105.157 2302.05 106.49 2301.11 107.545C2300.16 108.59 2298.74 109.249 2296.86 109.522C2297.8 110.069 2298.57 110.67 2299.17 111.324C2299.79 111.979 2300.61 113.141 2301.65 114.811L2304.27 119H2299.09L2295.95 114.327C2294.84 112.657 2294.08 111.607 2293.67 111.178C2293.26 110.738 2292.82 110.44 2292.36 110.284C2291.9 110.118 2291.18 110.035 2290.18 110.035H2289.3V119H2284.96ZM2289.3 106.607H2292.51C2294.59 106.607 2295.89 106.52 2296.41 106.344C2296.92 106.168 2297.33 105.865 2297.62 105.436C2297.91 105.006 2298.06 104.469 2298.06 103.824C2298.06 103.102 2297.87 102.521 2297.47 102.081C2297.09 101.632 2296.55 101.349 2295.85 101.231C2295.5 101.183 2294.44 101.158 2292.68 101.158H2289.3V106.607ZM2315.61 114.049L2319.71 114.737C2319.18 116.241 2318.35 117.389 2317.21 118.18C2316.07 118.961 2314.65 119.352 2312.94 119.352C2310.24 119.352 2308.24 118.468 2306.94 116.7C2305.91 115.284 2305.4 113.497 2305.4 111.339C2305.4 108.761 2306.07 106.744 2307.42 105.289C2308.77 103.824 2310.47 103.092 2312.53 103.092C2314.85 103.092 2316.67 103.858 2318.01 105.392C2319.35 106.915 2319.99 109.254 2319.93 112.408H2309.62C2309.65 113.629 2309.98 114.581 2310.61 115.265C2311.25 115.938 2312.04 116.275 2312.99 116.275C2313.63 116.275 2314.17 116.1 2314.61 115.748C2315.05 115.396 2315.38 114.83 2315.61 114.049ZM2315.84 109.889C2315.81 108.697 2315.51 107.794 2314.92 107.179C2314.33 106.554 2313.62 106.241 2312.78 106.241C2311.88 106.241 2311.14 106.568 2310.56 107.223C2309.97 107.877 2309.68 108.766 2309.69 109.889H2315.84ZM2327.58 119L2321.31 103.443H2325.63L2328.56 111.383L2329.41 114.034C2329.63 113.36 2329.77 112.916 2329.83 112.701C2329.97 112.262 2330.12 111.822 2330.27 111.383L2333.23 103.443H2337.46L2331.28 119H2327.58ZM2340 101.334V97.5254H2344.12V101.334H2340ZM2340 119V103.443H2344.12V119H2340ZM2357.36 114.049L2361.46 114.737C2360.93 116.241 2360.1 117.389 2358.95 118.18C2357.82 118.961 2356.4 119.352 2354.69 119.352C2351.99 119.352 2349.98 118.468 2348.69 116.7C2347.66 115.284 2347.15 113.497 2347.15 111.339C2347.15 108.761 2347.82 106.744 2349.17 105.289C2350.52 103.824 2352.22 103.092 2354.28 103.092C2356.6 103.092 2358.42 103.858 2359.76 105.392C2361.1 106.915 2361.74 109.254 2361.68 112.408H2351.37C2351.4 113.629 2351.73 114.581 2352.36 115.265C2353 115.938 2353.79 116.275 2354.74 116.275C2355.38 116.275 2355.92 116.1 2356.36 115.748C2356.8 115.396 2357.13 114.83 2357.36 114.049ZM2357.59 109.889C2357.56 108.697 2357.25 107.794 2356.67 107.179C2356.08 106.554 2355.37 106.241 2354.53 106.241C2353.63 106.241 2352.89 106.568 2352.3 107.223C2351.72 107.877 2351.43 108.766 2351.44 109.889H2357.59ZM2367.95 119L2363.03 103.443H2367.03L2369.94 113.639L2372.62 103.443H2376.59L2379.18 113.639L2382.16 103.443H2386.21L2381.22 119H2377.26L2374.58 108.995L2371.95 119H2367.95ZM2386.95 114.562L2391.08 113.932C2391.25 114.732 2391.61 115.343 2392.15 115.763C2392.68 116.173 2393.44 116.378 2394.4 116.378C2395.47 116.378 2396.27 116.183 2396.81 115.792C2397.17 115.519 2397.35 115.152 2397.35 114.693C2397.35 114.381 2397.25 114.122 2397.05 113.917C2396.85 113.722 2396.39 113.541 2395.68 113.375C2392.36 112.643 2390.25 111.974 2389.36 111.368C2388.13 110.528 2387.52 109.361 2387.52 107.867C2387.52 106.52 2388.05 105.387 2389.12 104.469C2390.18 103.551 2391.83 103.092 2394.07 103.092C2396.2 103.092 2397.78 103.438 2398.81 104.132C2399.85 104.825 2400.56 105.851 2400.95 107.208L2397.07 107.926C2396.9 107.32 2396.59 106.856 2396.12 106.534C2395.66 106.212 2395 106.051 2394.14 106.051C2393.06 106.051 2392.28 106.202 2391.81 106.505C2391.5 106.72 2391.34 106.998 2391.34 107.34C2391.34 107.633 2391.48 107.882 2391.75 108.087C2392.12 108.36 2393.4 108.746 2395.59 109.244C2397.79 109.742 2399.32 110.353 2400.19 111.075C2401.05 111.808 2401.48 112.828 2401.48 114.137C2401.48 115.562 2400.88 116.788 2399.69 117.813C2398.5 118.839 2396.74 119.352 2394.4 119.352C2392.28 119.352 2390.6 118.922 2389.36 118.062C2388.13 117.203 2387.33 116.036 2386.95 114.562Z" fill="white"/>
</svg>
